<?xml version="1.0" encoding="utf-8"?>
<!-- Generator: Adobe Illustrator 16.0.0, SVG Export Plug-In . SVG Version: 6.00 Build 0)  -->
<!DOCTYPE svg PUBLIC "-//W3C//DTD SVG 1.1//EN" "http://www.w3.org/Graphics/SVG/1.1/DTD/svg11.dtd">
<svg version="1.1" id="Layer_1" xmlns="http://www.w3.org/2000/svg" xmlns:xlink="http://www.w3.org/1999/xlink" x="0px" y="0px"
	 width="147.557px" height="150px" viewBox="-606.612 181 147.557 150" enable-background="new -606.612 181 147.557 150"
	 xml:space="preserve">
<path fill="#666666" d="M-459.07,325.154l-9.589-138.309c-0.223-3.215-3.042-5.846-6.265-5.846h-1.563c-3.223,0-8.496,0-11.718,0
	h-1.563c-3.223,0-6.041,2.631-6.265,5.846l-7.309,105.422v-11.609V256v-5.859h-5.859h-1.246v-5.859v-11.278v-4.883
	c0-3.223-2.212-4.425-4.915-2.671l-3.074,1.995l0-0.001l-34.962,22.698h-6.146v-5.86v-11.278v-4.883
	c0-3.223-2.212-4.425-4.915-2.671l-3.074,1.995v-0.001l-36.542,23.724l0.027-0.004c-1.546,1.058-2.566,2.834-2.566,4.838v69.14
	c0,3.224,2.637,5.859,5.859,5.859h81.006h10.546h9.033h10.107h1.856c3.223,0,8.496,0,11.718,0h11.962
	C-461.301,331-458.847,328.369-459.07,325.154z M-579.611,308.002h-11.719v-17.578h11.719V308.002z M-579.611,278.998h-11.719
	V261.42h11.719V278.998z M-550.9,308.002h-11.719v-17.578h11.719V308.002z M-550.9,278.998h-11.719V261.42h11.719V278.998z
	 M-521.457,308.002h-11.719v-17.578h11.719V308.002z M-521.457,278.998h-11.719V261.42h11.719V278.998z"/>
</svg>
