<?xml version="1.0" encoding="utf-8"?>
<!-- Generator: Adobe Illustrator 16.0.0, SVG Export Plug-In . SVG Version: 6.00 Build 0)  -->
<!DOCTYPE svg PUBLIC "-//W3C//DTD SVG 1.1//EN" "http://www.w3.org/Graphics/SVG/1.1/DTD/svg11.dtd">
<svg version="1.1" id="Layer_1" xmlns="http://www.w3.org/2000/svg" xmlns:xlink="http://www.w3.org/1999/xlink" x="0px" y="0px"
	 width="108.208px" height="110px" viewBox="-1857.198 384.506 108.208 110" enable-background="new -1857.198 384.506 108.208 110"
	 xml:space="preserve">
<path fill="#666666" d="M-1749,490.219l-7.032-101.426c-0.164-2.358-2.231-4.287-4.594-4.287h-1.146c-2.363,0-6.23,0-8.593,0h-1.146
	c-2.363,0-4.43,1.929-4.594,4.287l-5.36,77.309v-8.513v-18.083v-4.297h-4.297h-0.914v-4.297v-8.271v-3.581
	c0-2.363-1.622-3.245-3.604-1.958l-2.254,1.462l0,0l-25.638,16.646h-4.507v-4.298v-8.271v-3.581c0-2.363-1.623-3.245-3.604-1.958
	l-2.254,1.462l0,0l-26.797,17.397l0.02-0.003c-1.134,0.775-1.882,2.078-1.882,3.548v50.702c0,2.364,1.934,4.297,4.297,4.297h59.404
	h7.734h6.624h7.412h1.361c2.363,0,6.23,0,8.593,0h8.772C-1750.637,494.506-1748.836,492.577-1749,490.219z M-1837.396,477.641
	h-8.594V464.75h8.594V477.641z M-1837.396,456.371h-8.594V443.48h8.594V456.371z M-1816.342,477.641h-8.594V464.75h8.594V477.641z
	 M-1816.342,456.371h-8.594V443.48h8.594V456.371z M-1794.75,477.641h-8.594V464.75h8.594V477.641z M-1794.75,456.371h-8.594V443.48
	h8.594V456.371z"/>
</svg>
