<?xml version="1.0" encoding="utf-8"?>
<!-- Generator: Adobe Illustrator 16.0.0, SVG Export Plug-In . SVG Version: 6.00 Build 0)  -->
<!DOCTYPE svg PUBLIC "-//W3C//DTD SVG 1.1//EN" "http://www.w3.org/Graphics/SVG/1.1/DTD/svg11.dtd">
<svg version="1.1" id="Layer_1" xmlns="http://www.w3.org/2000/svg" xmlns:xlink="http://www.w3.org/1999/xlink" x="0px" y="0px"
	 width="92.201px" height="150px" viewBox="-1720.572 181 92.201 150" enable-background="new -1720.572 181 92.201 150"
	 xml:space="preserve">
<g>
	<path fill="#666666" d="M-1658.517,295.47h-31.91c-2.237,0-4.05,1.812-4.05,4.05c0,2.236,1.813,4.049,4.05,4.049h31.91
		c2.236,0,4.05-1.812,4.05-4.049S-1656.28,295.47-1658.517,295.47z"/>
	<path fill="#666666" d="M-1659.245,308.953h-30.454c-2.236,0-4.049,1.812-4.049,4.049c0,2.237,1.813,4.049,4.049,4.049h30.454
		c2.236,0,4.049-1.812,4.049-4.049S-1657.009,308.953-1659.245,308.953z"/>
	<path fill="#666666" d="M-1677.647,331h6.062c3.077,0,3.834-1.356,12.131-8.752h-30.036
		C-1681.605,329.536-1680.793,331-1677.647,331z"/>
	<path fill="#666666" d="M-1720.572,225.219c0,27.419,23.58,42.784,23.58,64.421h6.865h3.992h23.446h3.509h7.228
		c0-21.637,23.581-37.002,23.581-64.421C-1628.372,166.23-1720.572,166.291-1720.572,225.219z"/>
</g>
</svg>
