<?xml version="1.0" encoding="utf-8"?>
<!-- Generator: Adobe Illustrator 16.0.0, SVG Export Plug-In . SVG Version: 6.00 Build 0)  -->
<!DOCTYPE svg PUBLIC "-//W3C//DTD SVG 1.1//EN" "http://www.w3.org/Graphics/SVG/1.1/DTD/svg11.dtd">
<svg version="1.1" id="Layer_1" xmlns="http://www.w3.org/2000/svg" xmlns:xlink="http://www.w3.org/1999/xlink" x="0px" y="0px"
	 width="79.908px" height="130px" viewBox="-1843.048 -0.451 79.908 130" enable-background="new -1843.048 -0.451 79.908 130"
	 xml:space="preserve">
<g>
	<path fill="#666666" d="M-1789.266,98.756h-27.655c-1.938,0-3.51,1.571-3.51,3.51s1.571,3.509,3.51,3.509h27.655
		c1.938,0,3.51-1.57,3.51-3.509S-1787.327,98.756-1789.266,98.756z"/>
	<path fill="#666666" d="M-1789.897,110.441h-26.393c-1.938,0-3.51,1.571-3.51,3.509c0,1.939,1.571,3.51,3.51,3.51h26.393
		c1.938,0,3.51-1.571,3.51-3.51C-1786.388,112.013-1787.959,110.441-1789.897,110.441z"/>
	<path fill="#666666" d="M-1805.846,129.549h5.254c2.667,0,3.323-1.176,10.514-7.585h-26.031
		C-1809.276,128.28-1808.572,129.549-1805.846,129.549z"/>
	<path fill="#666666" d="M-1843.048,37.872c0,23.763,20.437,37.079,20.437,55.831h5.949h3.46h20.319h3.041h6.265
		c0-18.752,20.438-32.068,20.438-55.831C-1763.141-13.252-1843.047-13.199-1843.048,37.872z"/>
</g>
</svg>
