<?xml version="1.0" encoding="utf-8"?>
<!-- Generator: Adobe Illustrator 16.0.0, SVG Export Plug-In . SVG Version: 6.00 Build 0)  -->
<!DOCTYPE svg PUBLIC "-//W3C//DTD SVG 1.1//EN" "http://www.w3.org/Graphics/SVG/1.1/DTD/svg11.dtd">
<svg version="1.1" id="Layer_1" xmlns="http://www.w3.org/2000/svg" xmlns:xlink="http://www.w3.org/1999/xlink" x="0px" y="0px"
	 width="141.819px" height="150px" viewBox="-1212.594 180.999 141.819 150" enable-background="new -1212.594 180.999 141.819 150"
	 xml:space="preserve">
<path id="cut-7-icon" fill="#666666" d="M-1144.476,269.808c-5.807,2.787-11.993,5.711-17.505,8.351
	c14.98,17.19,18.249,28.933,20.488,41.583l-23.062,11.258c-2.542-19.914-13.68-33.229-21.703-41.145
	c-2.19,1.05-4.262,2.008-5.402,2.554c-10.926,5.235-20.935-8.51-20.935-8.51l17.21-8.241c-3.246-4.732-4.963-11.399-4.952-17.039
	h28.025c0.231,1.744,0.679,3.513,1.37,5.317l7.168-3.437L-1144.476,269.808z M-1072.931,295.944
	c-5.711,11.836-20.935,16.365-33.938,10.095c-11.479-5.538-17.448-17.671-14.76-28.585c1.534-6.227-1.753-7.071-6.767-9.492
	l-83.842-40.437c0,0,10.043-13.72,20.955-8.459c1.177,0.568,2.982,1.438,5.28,2.544c8.875-10.32,19.887-27.769,20.503-40.611
	c5.071,3.516,17.107,9.465,23.26,12.441c-2.732,15.473-11.629,28.668-20.843,39.211c9.072,4.372,19.148,9.233,28.606,13.809
	l5.824-2.792c5.02-2.409,8.31-3.248,6.79-9.476c-2.661-10.922,3.337-23.04,14.833-28.548c13.016-6.239,28.229-1.672,33.911,10.18
	c5.681,11.852-0.399,26.348-13.307,32.811c-9.607,4.809-16.342,1.062-25.882,5.685c-0.957,0.463-1.954,0.946-2.981,1.442
	c1.127,0.548,2.22,1.079,3.262,1.589c9.53,4.646,16.274,0.916,25.868,5.749C-1073.265,269.595-1067.222,284.105-1072.931,295.944z
	 M-1109.767,233.39c2.887,6.022,11.085,8.119,18.273,4.673c7.189-3.444,10.688-11.147,7.803-17.172
	c-2.888-6.023-11.085-8.12-18.275-4.674C-1109.155,219.66-1112.654,227.364-1109.767,233.39z M-1131.374,254.737
	c0-2.404-1.95-4.354-4.354-4.354s-4.354,1.949-4.354,4.354s1.949,4.354,4.354,4.354S-1131.374,257.143-1131.374,254.737z
	 M-1091.25,273.659c-7.181-3.464-15.384-1.388-18.286,4.629c-2.903,6.018,0.577,13.729,7.759,17.192
	c7.181,3.463,15.382,1.387,18.287-4.63C-1080.59,284.834-1084.071,277.123-1091.25,273.659z"/>
</svg>
