<?xml version="1.0" encoding="utf-8"?>
<!-- Generator: Adobe Illustrator 16.0.0, SVG Export Plug-In . SVG Version: 6.00 Build 0)  -->
<!DOCTYPE svg PUBLIC "-//W3C//DTD SVG 1.1//EN" "http://www.w3.org/Graphics/SVG/1.1/DTD/svg11.dtd">
<svg version="1.1" id="Layer_1" xmlns="http://www.w3.org/2000/svg" xmlns:xlink="http://www.w3.org/1999/xlink" x="0px" y="0px"
	 width="113.455px" height="120px" viewBox="-1859.821 600.308 113.455 120" enable-background="new -1859.821 600.308 113.455 120"
	 xml:space="preserve">
<path id="cut-7-icon" fill="#666666" d="M-1805.327,671.354c-4.645,2.229-9.594,4.568-14.004,6.681
	c11.984,13.752,14.6,23.146,16.391,33.267l-18.449,9.006c-2.033-15.932-10.943-26.584-17.362-32.916
	c-1.752,0.84-3.41,1.606-4.321,2.043c-8.741,4.188-16.748-6.808-16.748-6.808l13.768-6.593c-2.597-3.786-3.97-9.119-3.961-13.631
	h22.42c0.185,1.395,0.543,2.81,1.096,4.254l5.734-2.75L-1805.327,671.354z M-1748.091,692.264
	c-4.569,9.469-16.748,13.093-27.151,8.076c-9.183-4.431-13.958-14.137-11.808-22.868c1.227-4.981-1.402-5.657-5.413-7.594
	l-67.073-32.35c0,0,8.035-10.976,16.764-6.767c0.941,0.454,2.385,1.149,4.224,2.035c7.1-8.257,15.909-22.215,16.402-32.489
	c4.057,2.812,13.686,7.572,18.608,9.953c-2.186,12.378-9.303,22.935-16.674,31.369c7.257,3.497,15.319,7.387,22.885,11.047
	l4.659-2.234c4.016-1.927,6.648-2.598,5.432-7.58c-2.128-8.737,2.67-18.432,11.866-22.839c10.413-4.991,22.583-1.337,27.129,8.145
	c4.545,9.481-0.319,21.078-10.645,26.248c-7.686,3.847-13.074,0.851-20.706,4.548c-0.766,0.37-1.563,0.757-2.385,1.154
	c0.902,0.438,1.776,0.863,2.61,1.271c7.624,3.717,13.02,0.733,20.694,4.6C-1748.358,671.185-1743.524,682.793-1748.091,692.264z
	 M-1777.56,642.22c2.31,4.818,8.868,6.496,14.619,3.738c5.751-2.755,8.551-8.918,6.243-13.737c-2.311-4.818-8.869-6.495-14.62-3.739
	C-1777.07,631.236-1779.869,637.399-1777.56,642.22z M-1794.845,659.298c0-1.923-1.561-3.482-3.484-3.482s-3.483,1.56-3.483,3.482
	c0,1.924,1.56,3.484,3.483,3.484S-1794.845,661.223-1794.845,659.298z M-1762.746,674.436c-5.745-2.771-12.307-1.11-14.628,3.703
	c-2.322,4.814,0.461,10.983,6.208,13.754c5.744,2.771,12.306,1.109,14.629-3.704
	C-1754.218,683.376-1757.003,677.207-1762.746,674.436z"/>
</svg>
