<?xml version="1.0" encoding="utf-8"?>
<!-- Generator: Adobe Illustrator 16.0.0, SVG Export Plug-In . SVG Version: 6.00 Build 0)  -->
<!DOCTYPE svg PUBLIC "-//W3C//DTD SVG 1.1//EN" "http://www.w3.org/Graphics/SVG/1.1/DTD/svg11.dtd">
<svg version="1.1" id="Layer_1" xmlns="http://www.w3.org/2000/svg" xmlns:xlink="http://www.w3.org/1999/xlink" x="0px" y="0px"
	 width="301.039px" height="133.547px" viewBox="0 0 301.039 133.547" enable-background="new 0 0 301.039 133.547"
	 xml:space="preserve">
<g id="Layer_1_1_">
	<g>
		<g>
			<path fill="#E9E9EA" d="M193.251,0.639c0,0.255-0.128,0.511-0.511,0.511c-1.021-0.128-1.788-0.128-2.299-0.128
				c-1.405,0-2.045,0.128-2.938,1.149c-3.576,4.598-7.791,13.027-11.749,20.306c-3.96,7.024-7.791,13.921-11.878,20.306
				c-2.683,4.47-7.024,10.089-10.345,13.282c-7.662,7.152-19.285,14.56-34.737,14.56c-3.704,0-7.024-0.512-9.834-1.661
				c-0.895-0.383-1.277-0.638-1.149-1.788c0-1.148,0.128-3.575,0.255-5.874l0.895-0.256c0.639,4.47,4.087,8.046,12.132,8.046
				c7.024,0,12.771-2.043,19.413-8.684c6.002-5.875,12.006-14.942,18.391-25.798c5.875-9.834,13.41-23.754,17.113-32.056
				c0.129-0.383,0.383-1.149-0.639-1.149c-6.77,0-16.348,1.405-21.967,4.47c-3.448,1.916-5.875,4.853-5.875,9.195
				c0,0.766,0,1.405,0.256,2.427c0.127,0.255-0.128,0.383-0.256,0.383c-0.767-0.511-3.192-2.555-3.192-5.747
				c0-3.448,2.809-7.024,10.09-9.068C160.686,1.277,171.284,0,192.74,0C193.123,0.127,193.251,0.383,193.251,0.639z"/>
		</g>
		<g>
			<path fill="#E9E9EA" d="M0.117,116.064c0-0.623-0.02-1.209-0.059-1.756C0.02,113.764,0,113.266,0,112.814h2.167
				c0,0.371,0.01,0.742,0.029,1.113s0.029,0.752,0.029,1.143h0.059c0.156-0.332,0.376-0.654,0.659-0.967
				c0.282-0.312,0.619-0.59,1.01-0.834c0.391-0.244,0.83-0.439,1.317-0.586c0.488-0.146,1.016-0.221,1.582-0.221
				c0.741,0,1.361,0.094,1.859,0.278c0.497,0.186,0.912,0.409,1.244,0.674s0.59,0.547,0.776,0.849
				c0.185,0.305,0.336,0.571,0.453,0.807c0.508-0.82,1.094-1.459,1.757-1.918c0.664-0.459,1.523-0.688,2.577-0.688
				c0.976,0,1.796,0.132,2.46,0.396c0.663,0.265,1.2,0.646,1.61,1.144c0.41,0.497,0.703,1.103,0.878,1.815
				c0.176,0.713,0.264,1.508,0.264,2.386v8.315h-2.283v-8.199c0-0.467-0.05-0.926-0.146-1.375c-0.099-0.449-0.274-0.85-0.527-1.2
				c-0.254-0.353-0.596-0.636-1.025-0.851s-0.976-0.321-1.64-0.321c-0.488,0-0.947,0.099-1.376,0.293
				c-0.43,0.194-0.806,0.469-1.127,0.819c-0.322,0.352-0.576,0.775-0.762,1.273c-0.186,0.498-0.278,1.05-0.278,1.654v7.906H9.282
				v-7.761c0-1.522-0.205-2.601-0.614-3.235c-0.41-0.635-1.084-0.951-2.021-0.951c-0.742,0-1.382,0.128-1.918,0.381
				c-0.537,0.254-0.977,0.615-1.318,1.083c-0.342,0.469-0.596,1.024-0.761,1.67c-0.166,0.644-0.249,1.356-0.249,2.137v6.677H0.117
				V116.064z"/>
			<path fill="#E9E9EA" d="M28.447,119.668c0-1.074,0.186-2.05,0.557-2.93c0.37-0.877,0.878-1.635,1.522-2.27
				c0.645-0.634,1.415-1.127,2.313-1.479c0.897-0.352,1.874-0.527,2.928-0.527c1.055,0,2.03,0.176,2.929,0.527
				c0.897,0.352,1.669,0.845,2.312,1.479c0.645,0.635,1.152,1.393,1.523,2.27c0.37,0.88,0.556,1.854,0.556,2.93
				c0,1.073-0.186,2.05-0.556,2.928c-0.371,0.879-0.879,1.637-1.523,2.271c-0.644,0.635-1.415,1.127-2.312,1.479
				c-0.898,0.352-1.874,0.526-2.929,0.526c-1.054,0-2.03-0.177-2.928-0.526c-0.898-0.353-1.669-0.845-2.313-1.479
				c-0.645-0.634-1.152-1.392-1.522-2.271C28.633,121.718,28.447,120.741,28.447,119.668z M30.907,119.668
				c0,0.723,0.112,1.391,0.337,2.006c0.224,0.614,0.551,1.151,0.98,1.61c0.429,0.459,0.941,0.819,1.537,1.083
				c0.596,0.264,1.264,0.396,2.006,0.396c0.742,0,1.41-0.133,2.006-0.396s1.107-0.624,1.537-1.083s0.757-0.996,0.981-1.61
				c0.224-0.615,0.337-1.283,0.337-2.006s-0.113-1.393-0.337-2.006c-0.225-0.615-0.552-1.152-0.981-1.611
				c-0.43-0.458-0.941-0.818-1.537-1.083c-0.596-0.264-1.264-0.396-2.006-0.396c-0.742,0-1.41,0.132-2.006,0.396
				c-0.596,0.265-1.107,0.625-1.537,1.083c-0.43,0.459-0.757,0.996-0.98,1.611C31.02,118.275,30.907,118.945,30.907,119.668z"/>
			<path fill="#E9E9EA" d="M50.748,104.383h2.284v10.424h0.059c0.624-0.74,1.352-1.316,2.182-1.728
				c0.829-0.41,1.742-0.615,2.737-0.615c1.073,0,2.055,0.181,2.943,0.542c0.888,0.361,1.645,0.864,2.27,1.508
				c0.624,0.646,1.112,1.406,1.464,2.284c0.352,0.879,0.527,1.835,0.527,2.87c0,1.034-0.176,1.991-0.527,2.869
				c-0.352,0.879-0.835,1.641-1.449,2.283c-0.615,0.646-1.343,1.146-2.182,1.509c-0.84,0.36-1.738,0.542-2.694,0.542
				c-1.229,0-2.309-0.27-3.235-0.807c-0.928-0.535-1.606-1.194-2.035-1.977h-0.059v2.432h-2.284L50.748,104.383L50.748,104.383z
				 M53.032,119.668c0,0.723,0.112,1.391,0.337,2.006c0.224,0.614,0.551,1.151,0.98,1.61c0.429,0.459,0.941,0.819,1.537,1.083
				c0.596,0.264,1.265,0.396,2.006,0.396c0.742,0,1.41-0.133,2.006-0.396s1.108-0.624,1.538-1.083
				c0.429-0.459,0.756-0.996,0.98-1.61c0.225-0.615,0.337-1.283,0.337-2.006s-0.112-1.393-0.337-2.006
				c-0.225-0.615-0.552-1.152-0.98-1.611c-0.43-0.458-0.942-0.818-1.538-1.083c-0.596-0.264-1.264-0.396-2.006-0.396
				c-0.741,0-1.41,0.132-2.006,0.396c-0.596,0.265-1.107,0.625-1.537,1.083c-0.43,0.459-0.757,0.996-0.98,1.611
				C53.145,118.275,53.032,118.945,53.032,119.668z"/>
			<path fill="#E9E9EA" d="M72.466,107.457c0-0.449,0.161-0.839,0.483-1.171c0.322-0.332,0.718-0.498,1.186-0.498
				c0.469,0,0.864,0.166,1.187,0.498c0.323,0.332,0.483,0.722,0.483,1.171c0,0.488-0.157,0.889-0.469,1.2s-0.713,0.469-1.201,0.469
				c-0.487,0-0.888-0.155-1.2-0.469C72.622,108.346,72.466,107.945,72.466,107.457z M72.993,112.814h2.284v13.705h-2.284V112.814z"
				/>
			<path fill="#E9E9EA" d="M84.038,104.383h2.284v22.137h-2.284V104.383z"/>
			<path fill="#E9E9EA" d="M94.532,107.457c0-0.449,0.161-0.839,0.483-1.171c0.322-0.332,0.718-0.498,1.186-0.498
				c0.469,0,0.864,0.166,1.187,0.498c0.323,0.332,0.483,0.722,0.483,1.171c0,0.488-0.157,0.889-0.469,1.2s-0.713,0.469-1.201,0.469
				c-0.487,0-0.888-0.155-1.2-0.469C94.688,108.346,94.532,107.945,94.532,107.457z M95.06,112.814h2.284v13.705H95.06V112.814z"/>
			<path fill="#E9E9EA" d="M118.219,124.029c-0.82,1.056-1.719,1.793-2.694,2.212c-0.977,0.42-2.108,0.63-3.396,0.63
				c-1.074,0-2.04-0.189-2.899-0.571c-0.858-0.381-1.586-0.893-2.181-1.536c-0.596-0.646-1.055-1.406-1.377-2.285
				c-0.322-0.877-0.482-1.814-0.482-2.811c0-1.055,0.175-2.025,0.526-2.914c0.352-0.888,0.84-1.648,1.464-2.283
				c0.625-0.635,1.366-1.128,2.226-1.479c0.86-0.353,1.796-0.527,2.812-0.527c0.956,0,1.835,0.161,2.635,0.483
				c0.801,0.322,1.489,0.791,2.064,1.404c0.576,0.615,1.021,1.367,1.333,2.256s0.468,1.898,0.468,3.031v0.73H107.65
				c0.039,0.586,0.181,1.146,0.425,1.684c0.244,0.537,0.561,1.006,0.952,1.406c0.39,0.4,0.849,0.717,1.376,0.951
				c0.527,0.234,1.103,0.352,1.728,0.352c0.995,0,1.835-0.176,2.519-0.527c0.683-0.352,1.298-0.867,1.845-1.551L118.219,124.029z
				 M116.257,118.438c-0.04-1.17-0.42-2.107-1.143-2.811c-0.722-0.703-1.718-1.055-2.986-1.055c-1.27,0-2.294,0.352-3.074,1.055
				c-0.781,0.702-1.25,1.641-1.406,2.811H116.257z"/>
			<path fill="#E9E9EA" d="M126.426,116.064c0-0.623-0.02-1.209-0.059-1.756s-0.059-1.045-0.059-1.494h2.167
				c0,0.371,0.01,0.742,0.029,1.113s0.029,0.752,0.029,1.143h0.059c0.156-0.332,0.376-0.654,0.659-0.967
				c0.282-0.312,0.619-0.59,1.01-0.834c0.391-0.244,0.83-0.439,1.317-0.586c0.488-0.146,1.016-0.221,1.582-0.221
				c0.155,0,0.312,0.012,0.468,0.029c0.156,0.02,0.312,0.059,0.469,0.117l-0.146,2.312c-0.391-0.117-0.801-0.176-1.229-0.176
				c-1.405,0-2.426,0.454-3.061,1.361c-0.634,0.908-0.951,2.151-0.951,3.732v6.678h-2.284V116.064z"/>
			<path fill="#E9E9EA" d="M156.148,129.594c0,0.352-0.056,0.758-0.162,1.217c-0.107,0.457-0.307,0.888-0.601,1.287
				c-0.293,0.4-0.709,0.742-1.243,1.025c-0.537,0.281-1.228,0.424-2.064,0.424c-0.273,0-0.543-0.02-0.807-0.059
				c-0.265-0.039-0.521-0.117-0.775-0.234l0.263-1.99c0.371,0.116,0.742,0.176,1.114,0.176c0.428,0,0.775-0.078,1.039-0.233
				c0.264-0.157,0.463-0.366,0.6-0.63s0.23-0.571,0.279-0.924c0.047-0.351,0.072-0.721,0.072-1.111v-15.725h2.285V129.594
				L156.148,129.594z M153.336,107.457c0-0.449,0.162-0.839,0.484-1.171s0.717-0.498,1.186-0.498s0.863,0.166,1.186,0.498
				c0.324,0.332,0.482,0.722,0.482,1.171c0,0.488-0.156,0.889-0.467,1.2c-0.312,0.312-0.713,0.469-1.201,0.469
				s-0.889-0.155-1.201-0.469C153.492,108.346,153.336,107.945,153.336,107.457z"/>
			<path fill="#E9E9EA" d="M176.648,123.27c0,0.625,0.018,1.211,0.059,1.758c0.037,0.547,0.059,1.043,0.059,1.492h-2.168
				c0-0.369-0.01-0.74-0.029-1.111c-0.019-0.371-0.028-0.752-0.028-1.143h-0.06c-0.155,0.332-0.375,0.653-0.658,0.967
				c-0.282,0.312-0.62,0.591-1.01,0.834c-0.391,0.244-0.83,0.438-1.317,0.586c-0.488,0.146-1.017,0.22-1.582,0.22
				c-0.897,0-1.675-0.138-2.328-0.41s-1.194-0.653-1.625-1.142c-0.431-0.489-0.746-1.079-0.951-1.771
				c-0.204-0.693-0.307-1.449-0.307-2.27v-8.463h2.282v8.229c0,1.152,0.254,2.061,0.763,2.723c0.508,0.664,1.297,0.996,2.371,0.996
				c0.741,0,1.381-0.127,1.918-0.381c0.536-0.253,0.978-0.615,1.317-1.083c0.342-0.469,0.597-1.024,0.763-1.669
				c0.165-0.645,0.247-1.357,0.247-2.138v-6.677h2.285V123.27L176.648,123.27z"/>
			<path fill="#E9E9EA" d="M185.658,122.918c0.447,0.566,0.941,1.016,1.479,1.348c0.535,0.332,1.215,0.498,2.035,0.498
				c0.352,0,0.707-0.039,1.068-0.117s0.688-0.205,0.98-0.381c0.291-0.177,0.526-0.396,0.702-0.658
				c0.177-0.265,0.265-0.582,0.265-0.953c0-0.369-0.084-0.674-0.25-0.907s-0.385-0.435-0.658-0.601s-0.586-0.297-0.938-0.396
				s-0.713-0.187-1.082-0.265c-0.646-0.135-1.26-0.293-1.846-0.469s-1.099-0.403-1.537-0.688s-0.791-0.648-1.056-1.1
				c-0.264-0.447-0.395-1.023-0.395-1.728c0-0.663,0.146-1.249,0.439-1.757s0.684-0.928,1.172-1.26
				c0.486-0.332,1.033-0.586,1.639-0.762c0.606-0.176,1.23-0.264,1.875-0.264c0.975,0,1.877,0.195,2.707,0.586
				s1.479,1.025,1.947,1.903l-1.902,1.259c-0.293-0.486-0.68-0.883-1.156-1.186c-0.479-0.303-1.061-0.455-1.742-0.455
				c-0.312,0-0.631,0.041-0.952,0.117c-0.322,0.078-0.609,0.195-0.863,0.353s-0.463,0.356-0.629,0.601
				c-0.166,0.245-0.25,0.522-0.25,0.834c0,0.293,0.095,0.543,0.279,0.748c0.185,0.204,0.438,0.385,0.762,0.541
				c0.319,0.156,0.69,0.293,1.11,0.409c0.421,0.117,0.854,0.216,1.304,0.293c0.604,0.117,1.183,0.269,1.729,0.454
				s1.024,0.436,1.436,0.747c0.408,0.312,0.73,0.702,0.965,1.171s0.352,1.045,0.352,1.729c0,0.781-0.155,1.444-0.469,1.99
				c-0.312,0.547-0.727,0.991-1.244,1.332c-0.518,0.342-1.104,0.592-1.756,0.747c-0.654,0.156-1.324,0.234-2.006,0.234
				c-1.172,0-2.182-0.181-3.031-0.542c-0.849-0.361-1.615-1.029-2.299-2.006L185.658,122.918z"/>
			<path fill="#E9E9EA" d="M202.805,122.918c0.449,0.566,0.941,1.016,1.479,1.348c0.536,0.332,1.215,0.498,2.034,0.498
				c0.353,0,0.707-0.039,1.068-0.117s0.689-0.205,0.982-0.381c0.293-0.177,0.527-0.396,0.701-0.658
				c0.176-0.265,0.264-0.582,0.264-0.953c0-0.369-0.082-0.674-0.248-0.907s-0.387-0.435-0.658-0.601
				c-0.273-0.166-0.586-0.297-0.938-0.396s-0.713-0.187-1.084-0.265c-0.646-0.135-1.26-0.293-1.844-0.469
				c-0.586-0.176-1.101-0.403-1.537-0.688c-0.439-0.283-0.791-0.648-1.055-1.1c-0.265-0.447-0.396-1.023-0.396-1.728
				c0-0.663,0.146-1.249,0.439-1.757s0.684-0.928,1.172-1.26c0.487-0.332,1.035-0.586,1.641-0.762
				c0.604-0.176,1.229-0.264,1.873-0.264c0.977,0,1.879,0.195,2.709,0.586s1.479,1.025,1.947,1.903l-1.904,1.259
				c-0.293-0.486-0.678-0.883-1.156-1.186s-1.059-0.455-1.742-0.455c-0.312,0-0.629,0.041-0.951,0.117
				c-0.322,0.078-0.61,0.195-0.863,0.353c-0.254,0.155-0.465,0.356-0.631,0.601c-0.166,0.245-0.248,0.522-0.248,0.834
				c0,0.293,0.093,0.543,0.277,0.748c0.186,0.204,0.439,0.385,0.762,0.541c0.324,0.156,0.693,0.293,1.113,0.409
				c0.42,0.117,0.854,0.216,1.303,0.293c0.605,0.117,1.183,0.269,1.728,0.454c0.547,0.186,1.024,0.436,1.437,0.747
				c0.41,0.312,0.731,0.702,0.967,1.171c0.234,0.469,0.352,1.045,0.352,1.729c0,0.781-0.156,1.444-0.469,1.99
				c-0.312,0.547-0.729,0.991-1.244,1.332c-0.518,0.342-1.104,0.592-1.758,0.747c-0.654,0.156-1.322,0.234-2.006,0.234
				c-1.172,0-2.182-0.181-3.031-0.542c-0.848-0.361-1.615-1.029-2.297-2.006L202.805,122.918z"/>
			<path fill="#E9E9EA" d="M219.211,114.572c0.703-0.723,1.537-1.254,2.504-1.596s1.947-0.514,2.943-0.514
				c2.029,0,3.494,0.479,4.393,1.436c0.896,0.957,1.346,2.412,1.346,4.362v5.886c0,0.392,0.021,0.797,0.06,1.217
				s0.088,0.805,0.146,1.156h-2.194c-0.078-0.312-0.123-0.66-0.134-1.039c-0.01-0.381-0.014-0.719-0.014-1.012h-0.059
				c-0.449,0.703-1.051,1.279-1.801,1.729c-0.752,0.449-1.654,0.674-2.709,0.674c-0.703,0-1.361-0.088-1.978-0.264
				s-1.151-0.436-1.61-0.776c-0.457-0.341-0.824-0.767-1.099-1.272c-0.274-0.508-0.41-1.094-0.41-1.758
				c0-1.132,0.294-2.021,0.88-2.665s1.312-1.122,2.182-1.435c0.869-0.312,1.805-0.508,2.811-0.586
				c1.006-0.077,1.928-0.117,2.768-0.117h0.879v-0.409c0-0.996-0.299-1.747-0.893-2.255c-0.596-0.508-1.432-0.762-2.504-0.762
				c-0.742,0-1.469,0.121-2.182,0.365s-1.342,0.621-1.889,1.127L219.211,114.572z M225.828,119.932
				c-1.463,0-2.625,0.205-3.484,0.614c-0.859,0.41-1.287,1.084-1.287,2.021c0,0.859,0.287,1.47,0.863,1.83
				c0.576,0.361,1.293,0.543,2.152,0.543c0.664,0,1.244-0.112,1.742-0.338c0.498-0.225,0.912-0.521,1.244-0.894
				c0.332-0.37,0.586-0.806,0.762-1.304c0.176-0.497,0.272-1.028,0.293-1.596v-0.879h-2.285V119.932z"/>
			<path fill="#E9E9EA" d="M250.619,123.27c0,0.625,0.018,1.211,0.059,1.758c0.037,0.547,0.059,1.043,0.059,1.492h-2.168
				c0-0.369-0.01-0.74-0.028-1.111s-0.028-0.752-0.028-1.143h-0.06c-0.156,0.332-0.375,0.653-0.658,0.967
				c-0.283,0.312-0.621,0.591-1.01,0.834c-0.392,0.244-0.83,0.438-1.318,0.586c-0.487,0.146-1.016,0.22-1.582,0.22
				c-0.897,0-1.674-0.138-2.327-0.41c-0.654-0.272-1.195-0.653-1.625-1.142c-0.431-0.489-0.746-1.079-0.951-1.771
				c-0.205-0.693-0.308-1.449-0.308-2.27v-8.463h2.283v8.229c0,1.152,0.254,2.061,0.762,2.723c0.509,0.664,1.298,0.996,2.371,0.996
				c0.742,0,1.382-0.127,1.918-0.381c0.537-0.253,0.978-0.615,1.318-1.083c0.342-0.469,0.596-1.024,0.762-1.669
				s0.248-1.357,0.248-2.138v-6.677h2.285L250.619,123.27L250.619,123.27z"/>
			<path fill="#E9E9EA" d="M259.182,116.064c0-0.623-0.02-1.209-0.059-1.756s-0.059-1.045-0.059-1.494h2.166
				c0,0.371,0.01,0.742,0.028,1.113s0.029,0.752,0.029,1.143h0.06c0.155-0.332,0.375-0.654,0.657-0.967
				c0.283-0.312,0.621-0.59,1.013-0.834c0.389-0.244,0.827-0.439,1.315-0.586c0.487-0.147,1.017-0.221,1.582-0.221
				c0.742,0,1.36,0.094,1.858,0.278s0.912,0.409,1.244,0.674s0.59,0.547,0.775,0.849c0.186,0.305,0.338,0.571,0.455,0.807
				c0.508-0.82,1.092-1.459,1.756-1.918s1.523-0.688,2.578-0.688c0.975,0,1.795,0.132,2.459,0.396
				c0.664,0.265,1.201,0.646,1.611,1.144c0.408,0.497,0.701,1.103,0.877,1.815c0.176,0.711,0.264,1.508,0.264,2.386v8.315h-2.283
				v-8.199c0-0.467-0.049-0.926-0.146-1.375s-0.273-0.85-0.527-1.2c-0.254-0.353-0.596-0.636-1.024-0.851
				c-0.43-0.215-0.978-0.321-1.64-0.321c-0.487,0-0.946,0.099-1.377,0.293c-0.43,0.194-0.805,0.469-1.127,0.819
				c-0.321,0.352-0.576,0.775-0.762,1.273c-0.187,0.498-0.277,1.05-0.277,1.654v7.906h-2.285v-7.761
				c0-1.522-0.204-2.601-0.614-3.235c-0.408-0.635-1.082-0.951-2.021-0.951c-0.742,0-1.381,0.128-1.918,0.381
				c-0.537,0.254-0.978,0.615-1.317,1.083c-0.343,0.469-0.597,1.024-0.761,1.67c-0.168,0.644-0.25,1.356-0.25,2.137v6.677h-2.282
				V116.064L259.182,116.064z"/>
			<path fill="#E9E9EA" d="M300.541,124.029c-0.82,1.056-1.719,1.793-2.693,2.212c-0.977,0.42-2.109,0.63-3.396,0.63
				c-1.074,0-2.041-0.189-2.9-0.571c-0.858-0.381-1.586-0.893-2.182-1.536c-0.597-0.645-1.054-1.406-1.375-2.285
				c-0.322-0.877-0.484-1.814-0.484-2.811c0-1.055,0.177-2.025,0.527-2.914c0.353-0.888,0.84-1.648,1.465-2.283
				s1.365-1.128,2.226-1.479c0.859-0.353,1.797-0.527,2.812-0.527c0.955,0,1.834,0.161,2.635,0.483
				c0.802,0.322,1.488,0.791,2.064,1.404c0.575,0.615,1.02,1.367,1.331,2.256c0.312,0.889,0.47,1.898,0.47,3.031v0.73h-11.067
				c0.039,0.586,0.18,1.146,0.424,1.684s0.561,1.006,0.951,1.406c0.389,0.4,0.85,0.717,1.377,0.951
				c0.526,0.234,1.104,0.352,1.729,0.352c0.994,0,1.834-0.176,2.518-0.527c0.685-0.351,1.297-0.867,1.844-1.551L300.541,124.029z
				 M298.578,118.438c-0.039-1.17-0.42-2.107-1.141-2.811c-0.724-0.703-1.72-1.055-2.986-1.055c-1.27,0-2.295,0.352-3.076,1.055
				c-0.779,0.702-1.248,1.641-1.404,2.811H298.578z"/>
		</g>
	</g>
</g>
<g id="Layer_2">
</g>
</svg>
