<?xml version="1.0" encoding="utf-8"?>
<!-- Generator: Adobe Illustrator 16.0.0, SVG Export Plug-In . SVG Version: 6.00 Build 0)  -->
<!DOCTYPE svg PUBLIC "-//W3C//DTD SVG 1.1//EN" "http://www.w3.org/Graphics/SVG/1.1/DTD/svg11.dtd">
<svg version="1.1" xmlns="http://www.w3.org/2000/svg" xmlns:xlink="http://www.w3.org/1999/xlink" x="0px" y="0px"
	 width="301.039px" height="133.547px" viewBox="0 0 301.039 133.547" enable-background="new 0 0 301.039 133.547"
	 xml:space="preserve">
<g id="Layer_1">
	<g>
		<g>
			<path fill="#111111" d="M193.251,0.639c0,0.255-0.128,0.511-0.511,0.511c-1.021-0.128-1.788-0.128-2.299-0.128
				c-1.405,0-2.044,0.128-2.938,1.149c-3.576,4.598-7.791,13.027-11.749,20.306c-3.96,7.024-7.791,13.921-11.878,20.306
				c-2.682,4.47-7.024,10.089-10.345,13.282c-7.662,7.152-19.285,14.56-34.737,14.56c-3.704,0-7.024-0.512-9.834-1.661
				c-0.895-0.383-1.277-0.638-1.149-1.788c0-1.148,0.128-3.575,0.255-5.874l0.895-0.256c0.639,4.47,4.087,8.046,12.132,8.046
				c7.024,0,12.771-2.043,19.413-8.684c6.002-5.875,12.005-14.942,18.391-25.798c5.874-9.834,13.41-23.754,17.113-32.056
				c0.128-0.383,0.383-1.149-0.639-1.149c-6.769,0-16.347,1.405-21.967,4.47c-3.448,1.916-5.874,4.853-5.874,9.195
				c0,0.766,0,1.405,0.256,2.427c0.127,0.255-0.128,0.383-0.256,0.383c-0.767-0.511-3.192-2.555-3.192-5.747
				c0-3.448,2.809-7.024,10.089-9.068C160.685,1.277,171.284,0,192.74,0C193.123,0.127,193.251,0.383,193.251,0.639z"/>
		</g>
		<g>
			<path fill="#111111" d="M0.117,116.065c0-0.624-0.02-1.21-0.059-1.757C0.02,113.763,0,113.265,0,112.815h2.167
				c0,0.371,0.01,0.742,0.029,1.113s0.029,0.751,0.029,1.142h0.059c0.156-0.332,0.376-0.654,0.659-0.966
				c0.282-0.312,0.619-0.591,1.01-0.835s0.83-0.439,1.317-0.586c0.488-0.146,1.016-0.22,1.582-0.22c0.741,0,1.361,0.093,1.859,0.278
				c0.497,0.186,0.912,0.41,1.244,0.674s0.59,0.547,0.776,0.849c0.185,0.304,0.336,0.571,0.453,0.806
				c0.508-0.82,1.094-1.459,1.757-1.918c0.664-0.458,1.523-0.688,2.577-0.688c0.976,0,1.796,0.132,2.46,0.396
				c0.663,0.264,1.2,0.645,1.61,1.143c0.41,0.497,0.703,1.103,0.878,1.815c0.176,0.713,0.264,1.508,0.264,2.386v8.316h-2.283v-8.199
				c0-0.468-0.05-0.927-0.146-1.376c-0.099-0.449-0.274-0.85-0.527-1.2c-0.254-0.352-0.596-0.635-1.025-0.85
				s-0.976-0.322-1.64-0.322c-0.488,0-0.947,0.099-1.376,0.293c-0.43,0.195-0.806,0.469-1.127,0.82
				c-0.322,0.351-0.576,0.775-0.762,1.273s-0.278,1.05-0.278,1.654v7.906H9.282v-7.76c0-1.522-0.205-2.601-0.614-3.235
				c-0.41-0.635-1.084-0.952-2.021-0.952c-0.742,0-1.382,0.128-1.918,0.381c-0.537,0.254-0.977,0.615-1.318,1.083
				c-0.342,0.469-0.596,1.025-0.761,1.67c-0.166,0.644-0.249,1.356-0.249,2.137v6.677H0.117V116.065z"/>
			<path fill="#111111" d="M28.447,119.668c0-1.074,0.186-2.05,0.557-2.929c0.37-0.878,0.878-1.635,1.522-2.27
				c0.645-0.634,1.415-1.127,2.313-1.479c0.897-0.352,1.874-0.527,2.928-0.527c1.055,0,2.03,0.176,2.929,0.527
				c0.897,0.352,1.669,0.845,2.312,1.479c0.645,0.635,1.152,1.392,1.523,2.27c0.37,0.879,0.556,1.854,0.556,2.929
				c0,1.073-0.186,2.05-0.556,2.928c-0.371,0.879-0.879,1.636-1.523,2.27c-0.644,0.635-1.415,1.127-2.312,1.479
				c-0.898,0.352-1.874,0.527-2.929,0.527c-1.054,0-2.03-0.176-2.928-0.527c-0.898-0.352-1.669-0.844-2.313-1.479
				c-0.645-0.634-1.152-1.391-1.522-2.27C28.633,121.718,28.447,120.741,28.447,119.668z M30.907,119.668
				c0,0.722,0.112,1.391,0.337,2.006c0.224,0.614,0.551,1.151,0.98,1.61s0.941,0.819,1.537,1.083s1.264,0.396,2.006,0.396
				s1.41-0.132,2.006-0.396s1.107-0.624,1.537-1.083s0.757-0.996,0.981-1.61c0.224-0.615,0.337-1.284,0.337-2.006
				c0-0.723-0.113-1.392-0.337-2.006c-0.225-0.615-0.552-1.152-0.981-1.611c-0.43-0.458-0.941-0.819-1.537-1.083
				s-1.264-0.396-2.006-0.396s-1.41,0.132-2.006,0.396s-1.107,0.625-1.537,1.083c-0.43,0.459-0.757,0.996-0.98,1.611
				C31.02,118.276,30.907,118.945,30.907,119.668z"/>
			<path fill="#111111" d="M50.748,104.383h2.284v10.424h0.059c0.624-0.741,1.352-1.317,2.182-1.728
				c0.829-0.41,1.742-0.615,2.737-0.615c1.073,0,2.055,0.181,2.943,0.542c0.888,0.361,1.645,0.864,2.27,1.508
				c0.624,0.645,1.112,1.406,1.464,2.284c0.352,0.879,0.527,1.835,0.527,2.87c0,1.034-0.176,1.991-0.527,2.869
				c-0.352,0.879-0.835,1.64-1.449,2.284c-0.615,0.645-1.343,1.146-2.182,1.508c-0.84,0.361-1.738,0.542-2.694,0.542
				c-1.229,0-2.309-0.269-3.235-0.806c-0.928-0.536-1.606-1.195-2.035-1.977h-0.059v2.431h-2.284V104.383z M53.032,119.668
				c0,0.722,0.112,1.391,0.337,2.006c0.224,0.614,0.551,1.151,0.98,1.61s0.941,0.819,1.537,1.083s1.265,0.396,2.006,0.396
				c0.742,0,1.41-0.132,2.006-0.396s1.108-0.624,1.538-1.083c0.429-0.459,0.756-0.996,0.98-1.61
				c0.225-0.615,0.337-1.284,0.337-2.006c0-0.723-0.112-1.392-0.337-2.006c-0.225-0.615-0.552-1.152-0.98-1.611
				c-0.43-0.458-0.942-0.819-1.538-1.083s-1.264-0.396-2.006-0.396c-0.741,0-1.41,0.132-2.006,0.396s-1.107,0.625-1.537,1.083
				c-0.43,0.459-0.757,0.996-0.98,1.611C53.145,118.276,53.032,118.945,53.032,119.668z"/>
			<path fill="#111111" d="M72.466,107.457c0-0.449,0.161-0.839,0.483-1.171s0.718-0.498,1.186-0.498
				c0.469,0,0.864,0.166,1.187,0.498s0.483,0.722,0.483,1.171c0,0.488-0.157,0.889-0.469,1.2c-0.312,0.312-0.713,0.469-1.201,0.469
				c-0.487,0-0.888-0.156-1.2-0.469C72.622,108.346,72.466,107.945,72.466,107.457z M72.993,112.815h2.284v13.704h-2.284V112.815z"
				/>
			<path fill="#111111" d="M84.038,104.383h2.284v22.137h-2.284V104.383z"/>
			<path fill="#111111" d="M94.532,107.457c0-0.449,0.161-0.839,0.483-1.171s0.718-0.498,1.186-0.498
				c0.469,0,0.864,0.166,1.187,0.498s0.483,0.722,0.483,1.171c0,0.488-0.157,0.889-0.469,1.2c-0.312,0.312-0.713,0.469-1.201,0.469
				c-0.487,0-0.888-0.156-1.2-0.469C94.688,108.346,94.532,107.945,94.532,107.457z M95.06,112.815h2.284v13.704H95.06V112.815z"/>
			<path fill="#111111" d="M118.219,124.03c-0.82,1.055-1.719,1.792-2.694,2.211c-0.977,0.42-2.108,0.63-3.396,0.63
				c-1.074,0-2.04-0.19-2.899-0.571c-0.858-0.381-1.586-0.893-2.181-1.537c-0.596-0.645-1.055-1.405-1.377-2.284
				c-0.322-0.878-0.482-1.815-0.482-2.811c0-1.055,0.175-2.025,0.526-2.914c0.352-0.888,0.84-1.649,1.464-2.284
				c0.625-0.634,1.366-1.127,2.226-1.479s1.796-0.527,2.812-0.527c0.956,0,1.835,0.161,2.635,0.483
				c0.801,0.322,1.489,0.791,2.064,1.405c0.576,0.615,1.021,1.367,1.333,2.255c0.312,0.889,0.468,1.899,0.468,3.031v0.731h-11.068
				c0.039,0.586,0.181,1.147,0.425,1.684c0.244,0.537,0.561,1.006,0.952,1.406c0.39,0.4,0.849,0.717,1.376,0.951
				s1.103,0.352,1.728,0.352c0.995,0,1.835-0.176,2.519-0.527c0.683-0.352,1.298-0.868,1.845-1.552L118.219,124.03z
				 M116.257,118.438c-0.04-1.171-0.42-2.108-1.143-2.811c-0.722-0.703-1.718-1.055-2.986-1.055c-1.27,0-2.294,0.352-3.074,1.055
				c-0.781,0.702-1.25,1.64-1.406,2.811H116.257z"/>
			<path fill="#111111" d="M126.426,116.065c0-0.624-0.02-1.21-0.059-1.757c-0.039-0.546-0.059-1.044-0.059-1.493h2.167
				c0,0.371,0.01,0.742,0.029,1.113s0.029,0.751,0.029,1.142h0.059c0.156-0.332,0.376-0.654,0.659-0.966
				c0.282-0.312,0.619-0.591,1.01-0.835s0.83-0.439,1.317-0.586c0.488-0.146,1.016-0.22,1.582-0.22c0.155,0,0.312,0.011,0.468,0.029
				c0.156,0.02,0.312,0.059,0.469,0.117l-0.146,2.313c-0.391-0.117-0.801-0.176-1.229-0.176c-1.405,0-2.426,0.454-3.061,1.361
				c-0.634,0.908-0.951,2.152-0.951,3.733v6.677h-2.284V116.065z"/>
			<path fill="#111111" d="M156.148,129.594c0,0.352-0.055,0.757-0.162,1.216c-0.107,0.458-0.307,0.888-0.6,1.288
				s-0.709,0.742-1.244,1.025c-0.537,0.282-1.227,0.424-2.064,0.424c-0.273,0-0.543-0.02-0.807-0.059s-0.521-0.117-0.775-0.234
				l0.263-1.99c0.371,0.116,0.742,0.175,1.114,0.175c0.428,0,0.775-0.078,1.039-0.233c0.264-0.157,0.463-0.366,0.6-0.63
				s0.23-0.571,0.279-0.923c0.047-0.351,0.072-0.722,0.072-1.112v-15.725h2.285V129.594z M153.336,107.457
				c0-0.449,0.162-0.839,0.484-1.171s0.717-0.498,1.186-0.498s0.863,0.166,1.186,0.498s0.482,0.722,0.482,1.171
				c0,0.488-0.156,0.889-0.467,1.2c-0.312,0.312-0.713,0.469-1.201,0.469s-0.889-0.156-1.201-0.469
				C153.492,108.346,153.336,107.945,153.336,107.457z"/>
			<path fill="#111111" d="M176.648,123.27c0,0.625,0.018,1.21,0.059,1.757c0.037,0.547,0.059,1.044,0.059,1.493h-2.168
				c0-0.37-0.01-0.741-0.029-1.112s-0.029-0.752-0.029-1.143h-0.059c-0.156,0.332-0.375,0.654-0.658,0.967s-0.621,0.591-1.01,0.834
				c-0.391,0.244-0.83,0.439-1.318,0.586s-1.016,0.22-1.582,0.22c-0.898,0-1.674-0.137-2.328-0.41s-1.195-0.653-1.625-1.142
				s-0.746-1.079-0.951-1.771c-0.205-0.693-0.307-1.45-0.307-2.27v-8.463h2.283v8.229c0,1.152,0.254,2.06,0.762,2.723
				c0.508,0.664,1.297,0.996,2.371,0.996c0.742,0,1.381-0.127,1.918-0.381c0.537-0.253,0.977-0.615,1.318-1.083
				c0.342-0.469,0.596-1.025,0.762-1.669c0.166-0.645,0.248-1.357,0.248-2.138v-6.677h2.285V123.27z"/>
			<path fill="#111111" d="M185.658,122.918c0.447,0.566,0.941,1.016,1.479,1.347c0.535,0.332,1.215,0.498,2.035,0.498
				c0.352,0,0.707-0.039,1.068-0.117s0.688-0.205,0.98-0.381s0.527-0.396,0.703-0.658c0.176-0.264,0.264-0.581,0.264-0.952
				c0-0.37-0.084-0.674-0.25-0.908c-0.166-0.233-0.385-0.434-0.658-0.6s-0.586-0.298-0.938-0.396s-0.713-0.186-1.082-0.264
				c-0.645-0.136-1.26-0.293-1.846-0.469s-1.098-0.404-1.537-0.688s-0.791-0.649-1.055-1.099c-0.264-0.448-0.395-1.024-0.395-1.728
				c0-0.663,0.146-1.249,0.439-1.757c0.293-0.507,0.684-0.927,1.172-1.259c0.486-0.332,1.033-0.586,1.639-0.762
				s1.23-0.264,1.875-0.264c0.975,0,1.877,0.195,2.707,0.586s1.479,1.025,1.947,1.903l-1.902,1.259
				c-0.293-0.487-0.68-0.883-1.156-1.186c-0.479-0.303-1.061-0.454-1.742-0.454c-0.312,0-0.631,0.04-0.953,0.117
				c-0.322,0.078-0.609,0.195-0.863,0.352s-0.463,0.356-0.629,0.601s-0.25,0.522-0.25,0.834c0,0.293,0.094,0.542,0.279,0.747
				s0.439,0.386,0.762,0.542c0.32,0.156,0.691,0.292,1.111,0.409s0.854,0.216,1.303,0.293c0.605,0.117,1.182,0.269,1.729,0.454
				s1.025,0.435,1.436,0.747c0.408,0.312,0.73,0.702,0.965,1.171s0.352,1.045,0.352,1.728c0,0.781-0.156,1.445-0.469,1.991
				c-0.312,0.547-0.727,0.991-1.244,1.332c-0.518,0.342-1.104,0.591-1.756,0.747c-0.654,0.156-1.324,0.234-2.006,0.234
				c-1.172,0-2.182-0.181-3.031-0.542s-1.615-1.029-2.299-2.006L185.658,122.918z"/>
			<path fill="#111111" d="M202.805,122.918c0.449,0.566,0.941,1.016,1.479,1.347c0.537,0.332,1.215,0.498,2.035,0.498
				c0.352,0,0.707-0.039,1.068-0.117s0.689-0.205,0.982-0.381s0.527-0.396,0.701-0.658c0.176-0.264,0.264-0.581,0.264-0.952
				c0-0.37-0.082-0.674-0.248-0.908c-0.166-0.233-0.387-0.434-0.658-0.6c-0.273-0.166-0.586-0.298-0.938-0.396
				s-0.713-0.186-1.084-0.264c-0.645-0.136-1.26-0.293-1.844-0.469c-0.586-0.176-1.1-0.404-1.537-0.688
				c-0.439-0.283-0.791-0.649-1.055-1.099c-0.264-0.448-0.396-1.024-0.396-1.728c0-0.663,0.146-1.249,0.439-1.757
				c0.293-0.507,0.684-0.927,1.172-1.259s1.035-0.586,1.641-0.762c0.604-0.176,1.229-0.264,1.873-0.264
				c0.977,0,1.879,0.195,2.709,0.586s1.479,1.025,1.947,1.903l-1.904,1.259c-0.293-0.487-0.678-0.883-1.156-1.186
				s-1.059-0.454-1.742-0.454c-0.312,0-0.629,0.04-0.951,0.117c-0.322,0.078-0.611,0.195-0.863,0.352
				c-0.254,0.156-0.465,0.356-0.631,0.601s-0.248,0.522-0.248,0.834c0,0.293,0.092,0.542,0.277,0.747s0.439,0.386,0.762,0.542
				s0.693,0.292,1.113,0.409s0.854,0.216,1.303,0.293c0.605,0.117,1.182,0.269,1.727,0.454c0.547,0.186,1.025,0.435,1.436,0.747
				s0.732,0.702,0.967,1.171s0.352,1.045,0.352,1.728c0,0.781-0.156,1.445-0.469,1.991c-0.312,0.547-0.729,0.991-1.244,1.332
				c-0.518,0.342-1.104,0.591-1.758,0.747s-1.322,0.234-2.006,0.234c-1.172,0-2.182-0.181-3.031-0.542
				c-0.848-0.361-1.615-1.029-2.297-2.006L202.805,122.918z"/>
			<path fill="#111111" d="M219.211,114.572c0.703-0.722,1.537-1.254,2.504-1.596c0.967-0.341,1.947-0.513,2.943-0.513
				c2.029,0,3.494,0.479,4.393,1.436c0.896,0.956,1.346,2.411,1.346,4.362v5.886c0,0.391,0.02,0.796,0.059,1.216
				s0.088,0.805,0.146,1.156h-2.195c-0.078-0.312-0.123-0.659-0.133-1.039c-0.01-0.381-0.014-0.718-0.014-1.011h-0.059
				c-0.449,0.703-1.051,1.279-1.801,1.728c-0.752,0.449-1.654,0.674-2.709,0.674c-0.703,0-1.361-0.088-1.977-0.264
				s-1.152-0.435-1.611-0.776c-0.457-0.341-0.824-0.766-1.098-1.273s-0.41-1.093-0.41-1.757c0-1.132,0.293-2.021,0.879-2.665
				c0.586-0.644,1.312-1.122,2.182-1.435c0.869-0.312,1.805-0.507,2.811-0.586c1.006-0.077,1.928-0.117,2.768-0.117h0.879v-0.409
				c0-0.996-0.299-1.747-0.893-2.255c-0.596-0.508-1.432-0.762-2.504-0.762c-0.742,0-1.469,0.122-2.182,0.366
				s-1.342,0.62-1.889,1.127L219.211,114.572z M225.828,119.931c-1.463,0-2.625,0.205-3.484,0.615s-1.287,1.084-1.287,2.021
				c0,0.859,0.287,1.469,0.863,1.83s1.293,0.542,2.152,0.542c0.664,0,1.244-0.112,1.742-0.337s0.912-0.522,1.244-0.894
				c0.332-0.37,0.586-0.805,0.762-1.303s0.273-1.029,0.293-1.596v-0.879H225.828z"/>
			<path fill="#111111" d="M250.619,123.27c0,0.625,0.018,1.21,0.059,1.757c0.037,0.547,0.059,1.044,0.059,1.493h-2.168
				c0-0.37-0.01-0.741-0.029-1.112s-0.029-0.752-0.029-1.143h-0.059c-0.156,0.332-0.375,0.654-0.658,0.967s-0.621,0.591-1.01,0.834
				c-0.391,0.244-0.83,0.439-1.318,0.586s-1.016,0.22-1.582,0.22c-0.898,0-1.674-0.137-2.328-0.41s-1.195-0.653-1.625-1.142
				s-0.746-1.079-0.951-1.771c-0.205-0.693-0.307-1.45-0.307-2.27v-8.463h2.283v8.229c0,1.152,0.254,2.06,0.762,2.723
				c0.508,0.664,1.297,0.996,2.371,0.996c0.742,0,1.381-0.127,1.918-0.381c0.537-0.253,0.977-0.615,1.318-1.083
				c0.342-0.469,0.596-1.025,0.762-1.669c0.166-0.645,0.248-1.357,0.248-2.138v-6.677h2.285V123.27z"/>
			<path fill="#111111" d="M259.182,116.065c0-0.624-0.02-1.21-0.059-1.757c-0.039-0.546-0.059-1.044-0.059-1.493h2.166
				c0,0.371,0.01,0.742,0.029,1.113s0.029,0.751,0.029,1.142h0.059c0.156-0.332,0.375-0.654,0.658-0.966
				c0.283-0.312,0.621-0.591,1.012-0.835c0.389-0.244,0.828-0.439,1.316-0.586s1.016-0.22,1.582-0.22
				c0.742,0,1.361,0.093,1.859,0.278s0.912,0.41,1.244,0.674s0.59,0.547,0.775,0.849c0.186,0.304,0.338,0.571,0.455,0.806
				c0.508-0.82,1.092-1.459,1.756-1.918c0.664-0.458,1.523-0.688,2.578-0.688c0.975,0,1.795,0.132,2.459,0.396
				s1.201,0.645,1.611,1.143c0.408,0.497,0.701,1.103,0.877,1.815s0.264,1.508,0.264,2.386v8.316h-2.283v-8.199
				c0-0.468-0.049-0.927-0.146-1.376s-0.273-0.85-0.527-1.2c-0.254-0.352-0.596-0.635-1.025-0.85s-0.977-0.322-1.639-0.322
				c-0.488,0-0.947,0.099-1.377,0.293c-0.43,0.195-0.805,0.469-1.127,0.82c-0.322,0.351-0.576,0.775-0.762,1.273
				s-0.277,1.05-0.277,1.654v7.906h-2.285v-7.76c0-1.522-0.205-2.601-0.615-3.235c-0.408-0.635-1.082-0.952-2.02-0.952
				c-0.742,0-1.381,0.128-1.918,0.381c-0.537,0.254-0.977,0.615-1.318,1.083c-0.342,0.469-0.596,1.025-0.76,1.67
				c-0.168,0.644-0.25,1.356-0.25,2.137v6.677h-2.283V116.065z"/>
			<path fill="#111111" d="M300.541,124.03c-0.82,1.055-1.719,1.792-2.693,2.211c-0.977,0.42-2.109,0.63-3.396,0.63
				c-1.074,0-2.041-0.19-2.9-0.571s-1.586-0.893-2.182-1.537s-1.053-1.405-1.375-2.284c-0.322-0.878-0.484-1.815-0.484-2.811
				c0-1.055,0.176-2.025,0.527-2.914c0.352-0.888,0.84-1.649,1.465-2.284c0.625-0.634,1.365-1.127,2.225-1.479
				s1.797-0.527,2.812-0.527c0.955,0,1.834,0.161,2.635,0.483s1.488,0.791,2.064,1.405c0.576,0.615,1.02,1.367,1.332,2.255
				c0.312,0.889,0.469,1.899,0.469,3.031v0.731h-11.068c0.039,0.586,0.18,1.147,0.424,1.684c0.244,0.537,0.561,1.006,0.951,1.406
				s0.85,0.717,1.377,0.951s1.104,0.352,1.729,0.352c0.994,0,1.834-0.176,2.518-0.527s1.297-0.868,1.844-1.552L300.541,124.03z
				 M298.578,118.438c-0.039-1.171-0.42-2.108-1.141-2.811c-0.723-0.703-1.719-1.055-2.986-1.055c-1.27,0-2.295,0.352-3.076,1.055
				c-0.779,0.702-1.248,1.64-1.404,2.811H298.578z"/>
		</g>
	</g>
</g>
<g id="Layer_2">
</g>
</svg>
